<svg width="220" height="54" viewBox="0 0 220 54" fill="none" xmlns="http://www.w3.org/2000/svg" role="img" aria-labelledby="title desc">
  <title id="title">DynoForce</title>
  <desc id="desc">DynoForce wordmark</desc>
  <rect width="54" height="54" rx="17" fill="#101828"/>
  <path d="M16 35C21.4 24.8 26.8 19.7 32.4 19.7C37.1 19.7 40.8 23.1 43 29.9" stroke="#13C6A7" stroke-width="4" stroke-linecap="round"/>
  <path d="M16 36H42" stroke="#3B82F6" stroke-width="4" stroke-linecap="round"/>
  <path d="M74 35.7V17.6H82.2C87.8 17.6 91.7 21.2 91.7 26.6C91.7 32.1 87.8 35.7 82.2 35.7H74ZM78.1 32.2H82C85.3 32.2 87.5 30 87.5 26.6C87.5 23.3 85.3 21.1 82 21.1H78.1V32.2Z" fill="#132033"/>
  <path d="M95 41.1L98.1 34.4L92.4 21.9H96.8L100.2 30L103.7 21.9H108L99.3 41.1H95Z" fill="#132033"/>
  <path d="M109.8 35.7V21.9H113.6L113.8 23.6C114.8 22.3 116.4 21.6 118.3 21.6C121.5 21.6 123.7 23.9 123.7 27.5V35.7H119.7V28.2C119.7 26.1 118.7 25.1 116.9 25.1C115.1 25.1 113.8 26.4 113.8 28.6V35.7H109.8Z" fill="#132033"/>
  <path d="M133.7 36C129.5 36 126.5 33 126.5 28.8C126.5 24.6 129.5 21.6 133.7 21.6C137.9 21.6 140.9 24.6 140.9 28.8C140.9 33 137.9 36 133.7 36ZM133.7 32.6C135.6 32.6 136.9 31 136.9 28.8C136.9 26.6 135.6 25 133.7 25C131.8 25 130.5 26.6 130.5 28.8C130.5 31 131.8 32.6 133.7 32.6Z" fill="#132033"/>
  <path d="M144.3 35.7V17.6H157.3V21.1H148.4V25H155.6V28.3H148.4V35.7H144.3Z" fill="#132033"/>
  <path d="M165.1 36C160.9 36 157.9 33 157.9 28.8C157.9 24.6 160.9 21.6 165.1 21.6C169.3 21.6 172.3 24.6 172.3 28.8C172.3 33 169.3 36 165.1 36ZM165.1 32.6C167 32.6 168.3 31 168.3 28.8C168.3 26.6 167 25 165.1 25C163.2 25 161.9 26.6 161.9 28.8C161.9 31 163.2 32.6 165.1 32.6Z" fill="#132033"/>
  <path d="M175.2 35.7V21.9H179L179.3 24.5C180.3 22.8 181.9 21.9 184 21.9H184.8V26.1H183.7C180.8 26.1 179.2 27.6 179.2 30.7V35.7H175.2Z" fill="#132033"/>
  <path d="M193.3 36C189 36 186.1 33 186.1 28.8C186.1 24.6 189 21.6 193.3 21.6C196.9 21.6 199.4 23.6 200.1 26.8H196C195.6 25.7 194.6 25 193.3 25C191.4 25 190.1 26.5 190.1 28.8C190.1 31.1 191.4 32.6 193.3 32.6C194.7 32.6 195.7 31.9 196.1 30.7H200.1C199.4 34 196.8 36 193.3 36Z" fill="#132033"/>
  <path d="M209.1 36C204.8 36 201.9 33.1 201.9 28.8C201.9 24.6 204.9 21.6 209 21.6C213.1 21.6 216 24.5 216 28.5C216 29 216 29.4 215.9 29.9H205.8C206.1 31.8 207.3 32.9 209.1 32.9C210.5 32.9 211.4 32.3 212 31.4H215.6C214.8 34.1 212.5 36 209.1 36ZM205.9 27.4H212C211.8 25.7 210.6 24.7 209 24.7C207.4 24.7 206.2 25.7 205.9 27.4Z" fill="#132033"/>
</svg>
