<svg width="960" height="640" viewBox="0 0 960 640" xmlns="http://www.w3.org/2000/svg">
  <defs>
    <linearGradient id="bg" x1="0" y1="0" x2="1" y2="1">
      <stop stop-color="#FFFFFF"/>
      <stop offset="1" stop-color="#EEF7F8"/>
    </linearGradient>
    <filter id="shadow" x="-20%" y="-20%" width="140%" height="140%"><feDropShadow dx="0" dy="26" stdDeviation="26" flood-color="#1A2B41" flood-opacity="0.14"/></filter>
  </defs>
  <rect width="960" height="640" rx="42" fill="url(#bg)"/>
  <path d="M0 510C162 470 270 552 432 508C594 464 694 366 960 418V640H0V510Z" fill="#F7F9FC"/>
  <circle cx="760" cy="142" r="130" fill="#13C6A7" opacity=".12"/>
  <circle cx="236" cy="494" r="176" fill="#3B82F6" opacity=".09"/>
  <g filter="url(#shadow)"><g transform="translate(300 180) rotate(-8 180 140)">
          <rect x="50" y="60" width="330" height="150" rx="42" fill="#132033"/>
          <circle cx="125" cy="135" r="36" fill="#ffffff" opacity=".95"/>
          <circle cx="305" cy="135" r="36" fill="#ffffff" opacity=".95"/>
          <path d="M160 135H270" stroke="#13C6A7" stroke-width="18" stroke-linecap="round"/>
        </g></g>
  <text x="48" y="78" fill="#132033" font-family="Inter, Arial, sans-serif" font-size="40" font-weight="800">Wall Mount</text>
  <text x="48" y="122" fill="#66758A" font-family="Inter, Arial, sans-serif" font-size="22" font-weight="500">Attachment</text>
  <g transform="translate(48 548)">
    <rect width="86" height="40" rx="20" fill="#132033"/>
    <text x="43" y="26" text-anchor="middle" fill="#FFFFFF" font-family="Inter, Arial, sans-serif" font-size="15" font-weight="800">STEP</text>
    <rect x="96" width="70" height="40" rx="20" fill="#EEF9F7" stroke="#CDEEE7"/>
    <text x="131" y="26" text-anchor="middle" fill="#0B8E7A" font-family="Inter, Arial, sans-serif" font-size="15" font-weight="800">STL</text>
  </g>
</svg>