<svg width="960" height="640" viewBox="0 0 960 640" xmlns="http://www.w3.org/2000/svg">
  <defs>
    <linearGradient id="bg" x1="0" y1="0" x2="1" y2="1">
      <stop stop-color="#FFFFFF"/>
      <stop offset="1" stop-color="#EEF7F8"/>
    </linearGradient>
    <filter id="shadow" x="-20%" y="-20%" width="140%" height="140%"><feDropShadow dx="0" dy="26" stdDeviation="26" flood-color="#1A2B41" flood-opacity="0.14"/></filter>
  </defs>
  <rect width="960" height="640" rx="42" fill="url(#bg)"/>
  <path d="M0 510C162 470 270 552 432 508C594 464 694 366 960 418V640H0V510Z" fill="#F7F9FC"/>
  <circle cx="760" cy="142" r="130" fill="#13C6A7" opacity=".12"/>
  <circle cx="236" cy="494" r="176" fill="#3B82F6" opacity=".09"/>
  <g filter="url(#shadow)"><g transform="translate(245 130) rotate(-10 250 190)">
          <rect x="170" y="70" width="235" height="375" rx="110" fill="#132033"/>
          <rect x="205" y="110" width="165" height="305" rx="82" fill="#26374f"/>
          <rect x="430" y="118" width="72" height="280" rx="36" fill="#132033" stroke="#dce5ee" stroke-width="7"/>
          <rect x="78" y="118" width="72" height="280" rx="36" fill="#132033" stroke="#dce5ee" stroke-width="7"/>
          <path d="M215 225 C255 170 328 170 366 225" fill="none" stroke="#13C6A7" stroke-width="18" stroke-linecap="round"/>
          <circle cx="288" cy="292" r="38" fill="#3B82F6" opacity=".95"/>
        </g></g>
  <text x="48" y="78" fill="#132033" font-family="Inter, Arial, sans-serif" font-size="40" font-weight="800">Standard Grip Set</text>
  <text x="48" y="122" fill="#66758A" font-family="Inter, Arial, sans-serif" font-size="22" font-weight="500">Replacement grips</text>
  <g transform="translate(48 548)">
    <rect width="86" height="40" rx="20" fill="#132033"/>
    <text x="43" y="26" text-anchor="middle" fill="#FFFFFF" font-family="Inter, Arial, sans-serif" font-size="15" font-weight="800">STEP</text>
    <rect x="96" width="70" height="40" rx="20" fill="#EEF9F7" stroke="#CDEEE7"/>
    <text x="131" y="26" text-anchor="middle" fill="#0B8E7A" font-family="Inter, Arial, sans-serif" font-size="15" font-weight="800">STL</text>
  </g>
</svg>